<?xml version="1.0" standalone="no"?><!DOCTYPE svg PUBLIC "-//W3C//DTD SVG 1.1//EN" "http://www.w3.org/Graphics/SVG/1.1/DTD/svg11.dtd"><svg class="icon" height="512" viewBox="0 0 1024 1024" version="1.1" xmlns="http://www.w3.org/2000/svg"><path d="M886.4 137.6c-12.8-12.8-32.64-12.8-45.44 0l-59.52 59.52c-33.28-23.68-72.32-35.2-111.36-35.2-49.28 0-98.56 18.56-135.68 56.32L435.2 317.44 706.56 588.8 806.4 489.6c67.2-67.2 73.6-172.16 20.48-247.04l59.52-59.52C899.2 170.24 899.2 149.76 886.4 137.6zM760.96 444.16l-54.4 54.4L525.44 317.44l54.4-54.4c24.32-24.32 56.32-37.12 90.24-37.12 34.56 0 66.56 13.44 90.24 37.12 24.32 24.32 37.12 56.32 37.12 90.24C798.08 387.84 784.64 419.84 760.96 444.16zM579.84 534.4c-12.8-12.8-32.64-12.8-45.44 0l-58.88 58.88-45.44-45.44 58.88-58.88c12.8-12.8 12.8-32.64 0-45.44-12.8-12.8-32.64-12.8-45.44 0l-58.88 58.88L317.44 435.2 217.6 534.4c-67.2 67.2-73.6 172.16-20.48 247.04l-59.52 59.52c-12.8 12.8-12.8 32.64 0 45.44 6.4 6.4 14.72 9.6 22.4 9.6s16.64-3.2 22.4-9.6l59.52-59.52c33.28 23.68 72.32 35.2 111.36 35.2 49.28 0 98.56-18.56 135.68-56.32L588.8 706.56 520.96 638.72l58.88-58.88C592.64 567.68 592.64 547.2 579.84 534.4zM444.16 760.96c-24.32 24.32-56.32 37.12-90.24 37.12s-66.56-13.44-90.24-37.12c-24.32-24.32-37.12-56.32-37.12-90.24 0-34.56 13.44-66.56 37.12-90.24l54.4-54.4 181.12 181.12L444.16 760.96z" /></svg>